<?xml version="1.0" encoding="utf-8"?>
<svg width="23px" height="21px" viewBox="0 0 23 21" version="1.1" xmlns:xlink="http://www.w3.org/1999/xlink" xmlns="http://www.w3.org/2000/svg">
  <desc>Created with Lunacy</desc>
  <g id="Group_26">
    <g id="Rectangle_32" transform="translate(0 2.556338)">
      <path d="M2 0L21 0Q21.1025 0 21.2034 0.00932124Q21.3044 0.0186425 21.4029 0.037209Q21.5014 0.0557754 21.5967 0.0834357Q21.692 0.111096 21.7833 0.147624Q21.8747 0.184153 21.9612 0.229252Q22.0478 0.27435 22.129 0.327651Q22.2101 0.380953 22.2852 0.442021Q22.3602 0.50309 22.4286 0.571429Q22.4969 0.639767 22.558 0.714818Q22.6191 0.789868 22.6723 0.871019Q22.7257 0.95217 22.7708 1.03876Q22.8158 1.12535 22.8524 1.21667Q22.8889 1.30799 22.9166 1.4033Q22.9442 1.49861 22.9628 1.59713Q22.9814 1.69564 22.9907 1.79657Q23 1.89749 23 2L23 15.8415Q23 15.9441 22.9907 16.045Q22.9814 16.1459 22.9628 16.2444Q22.9442 16.3429 22.9166 16.4383Q22.8889 16.5336 22.8524 16.6249Q22.8159 16.7162 22.7708 16.8028Q22.7257 16.8894 22.6723 16.9705Q22.6191 17.0517 22.558 17.1267Q22.4969 17.2018 22.4286 17.2701Q22.3602 17.3385 22.2852 17.3995Q22.2101 17.4606 22.129 17.5139Q22.0478 17.5672 21.9612 17.6123Q21.8747 17.6574 21.7833 17.6939Q21.692 17.7305 21.5967 17.7581Q21.5014 17.7858 21.4029 17.8043Q21.3044 17.8229 21.2034 17.8322Q21.1025 17.8415 21 17.8415L2 17.8415Q1.89749 17.8415 1.79657 17.8322Q1.69564 17.8229 1.59713 17.8043Q1.49861 17.7858 1.4033 17.7581Q1.30799 17.7305 1.21667 17.6939Q1.12535 17.6574 1.03876 17.6123Q0.95217 17.5672 0.871019 17.5139Q0.789868 17.4606 0.714818 17.3995Q0.639767 17.3385 0.571429 17.2701Q0.50309 17.2018 0.442021 17.1267Q0.380953 17.0517 0.327651 16.9705Q0.27435 16.8894 0.229252 16.8028Q0.184153 16.7162 0.147624 16.6249Q0.111096 16.5336 0.0834357 16.4383Q0.0557754 16.3429 0.037209 16.2444Q0.0186425 16.1459 0.00932124 16.045Q0 15.9441 0 15.8415L0 2Q0 1.89749 0.00932124 1.79657Q0.0186425 1.69564 0.037209 1.59713Q0.0557754 1.49861 0.0834357 1.4033Q0.111096 1.30799 0.147624 1.21667Q0.184153 1.12535 0.229252 1.03876Q0.27435 0.95217 0.327651 0.871019Q0.380953 0.789868 0.442021 0.714818Q0.50309 0.639767 0.571429 0.571429Q0.639767 0.50309 0.714818 0.442021Q0.789868 0.380953 0.871019 0.327651Q0.95217 0.27435 1.03876 0.229252Q1.12535 0.184153 1.21667 0.147624Q1.30799 0.111096 1.4033 0.0834357Q1.49861 0.0557754 1.59713 0.037209Q1.69564 0.0186425 1.79657 0.00932124Q1.89749 0 2 0Z" id="Rectangle" fill="none" stroke="none" />
      <path d="M1.5 0L20.5 0Q20.5769 0 20.6526 0.00699093Q20.7283 0.0139819 20.8022 0.0279067Q20.876 0.0418316 20.9475 0.0625768Q21.019 0.0833219 21.0875 0.110718Q21.156 0.138115 21.2209 0.171939Q21.2859 0.205763 21.3467 0.245739Q21.4076 0.285714 21.4639 0.331516Q21.5202 0.377318 21.5714 0.428571Q21.6227 0.479825 21.6685 0.536113Q21.7143 0.592401 21.7543 0.653265Q21.7942 0.714128 21.8281 0.779069Q21.8619 0.844011 21.8893 0.912502Q21.9167 0.980993 21.9374 1.05247Q21.9582 1.12396 21.9721 1.19784Q21.986 1.27173 21.993 1.34743Q22 1.42312 22 1.5L22 15.3504Q22 15.4272 21.993 15.5029Q21.986 15.5786 21.9721 15.6525Q21.9582 15.7264 21.9374 15.7979Q21.9167 15.8694 21.8893 15.9379Q21.8619 16.0063 21.8281 16.0713Q21.7942 16.1362 21.7543 16.1971Q21.7143 16.2579 21.6685 16.3142Q21.6227 16.3705 21.5714 16.4218Q21.5202 16.473 21.4639 16.5188Q21.4076 16.5646 21.3467 16.6046Q21.2859 16.6446 21.2209 16.6784Q21.156 16.7122 21.0875 16.7396Q21.019 16.767 20.9475 16.7878Q20.876 16.8085 20.8022 16.8224Q20.7283 16.8364 20.6526 16.8434Q20.5769 16.8504 20.5 16.8504L1.5 16.8504Q1.42312 16.8504 1.34743 16.8434Q1.27173 16.8364 1.19784 16.8224Q1.12396 16.8085 1.05247 16.7878Q0.980993 16.767 0.912502 16.7396Q0.844011 16.7122 0.779069 16.6784Q0.714128 16.6446 0.653264 16.6046Q0.592401 16.5646 0.536113 16.5188Q0.479825 16.473 0.428571 16.4218Q0.377318 16.3705 0.331516 16.3142Q0.285714 16.258 0.245739 16.1971Q0.205763 16.1362 0.171939 16.0713Q0.138115 16.0063 0.110718 15.9379Q0.0833219 15.8694 0.0625768 15.7979Q0.0418316 15.7264 0.0279067 15.6525Q0.0139819 15.5786 0.00699093 15.5029Q0 15.4272 0 15.3504L0 1.5Q0 1.42312 0.00699093 1.34743Q0.0139819 1.27173 0.0279067 1.19784Q0.0418316 1.12396 0.0625768 1.05247Q0.0833219 0.980993 0.110718 0.912502Q0.138115 0.844011 0.171939 0.779069Q0.205763 0.714128 0.245739 0.653264Q0.285714 0.592401 0.331516 0.536113Q0.377318 0.479825 0.428571 0.428571Q0.479825 0.377318 0.536113 0.331516Q0.592401 0.285714 0.653265 0.245739Q0.714128 0.205763 0.779069 0.171939Q0.844011 0.138115 0.912502 0.110718Q0.980993 0.0833219 1.05247 0.0625768Q1.12396 0.0418316 1.19784 0.0279067Q1.27173 0.0139819 1.34743 0.00699093Q1.42312 0 1.5 0Z" transform="translate(0.5 0.4955986)" id="Rectangle" fill="none" stroke="#272727" stroke-width="1" />
    </g>
    <g id="Rectangle_40" transform="translate(5 11.47711)">
      <path d="M0 0L1 0L1 0.991197L0 0.991197L0 0Z" id="Rectangle" fill="#FFFFFF" stroke="none" />
      <path d="M0 0L0.1 0L0.1 0.1L0 0.1L0 0Z" transform="translate(0.5 0.4955986)" id="Rectangle" fill="none" stroke="#95989A" stroke-width="1" />
    </g>
    <g id="Rectangle_44" transform="translate(5 15.4419)">
      <path d="M0 0L1 0L1 0.991197L0 0.991197L0 0Z" id="Rectangle" fill="#FFFFFF" stroke="none" />
      <path d="M0 0L0.1 0L0.1 0.1L0 0.1L0 0Z" transform="translate(0.5 0.4955986)" id="Rectangle" fill="none" stroke="#95989A" stroke-width="1" />
    </g>
    <g id="Rectangle_35" transform="translate(13 7.512324)">
      <path d="M0 0L1 0L1 0.991197L0 0.991197L0 0Z" id="Rectangle" fill="#FFFFFF" stroke="none" />
      <path d="M0 0L0.1 0L0.1 0.1L0 0.1L0 0Z" transform="translate(0.5 0.4955986)" id="Rectangle" fill="none" stroke="#95989A" stroke-width="1" />
    </g>
    <g id="Rectangle_38" transform="translate(13 11.47711)">
      <path d="M0 0L1 0L1 0.991197L0 0.991197L0 0Z" id="Rectangle" fill="#FFFFFF" stroke="none" />
      <path d="M0 0L0.1 0L0.1 0.1L0 0.1L0 0Z" transform="translate(0.5 0.4955986)" id="Rectangle" fill="none" stroke="#95989A" stroke-width="1" />
    </g>
    <g id="Rectangle_42" transform="translate(13 15.4419)">
      <path d="M0 0L1 0L1 0.991197L0 0.991197L0 0Z" id="Rectangle" fill="#FFFFFF" stroke="none" />
      <path d="M0 0L0.1 0L0.1 0.1L0 0.1L0 0Z" transform="translate(0.5 0.4955986)" id="Rectangle" fill="none" stroke="#95989A" stroke-width="1" />
    </g>
    <g id="Rectangle_34" transform="translate(9 7.512324)">
      <path d="M0 0L1 0L1 0.991197L0 0.991197L0 0Z" id="Rectangle" fill="#FFFFFF" stroke="none" />
      <path d="M0 0L0.1 0L0.1 0.1L0 0.1L0 0Z" transform="translate(0.5 0.4955986)" id="Rectangle" fill="none" stroke="#95989A" stroke-width="1" />
    </g>
    <g id="Rectangle_37" transform="translate(9 11.47711)">
      <path d="M0 0L1 0L1 0.991197L0 0.991197L0 0Z" id="Rectangle" fill="#FFFFFF" stroke="none" />
      <path d="M0 0L0.1 0L0.1 0.1L0 0.1L0 0Z" transform="translate(0.5 0.4955986)" id="Rectangle" fill="none" stroke="#95989A" stroke-width="1" />
    </g>
    <g id="Rectangle_41" transform="translate(9 15.4419)">
      <path d="M0 0L1 0L1 0.991197L0 0.991197L0 0Z" id="Rectangle" fill="#FFFFFF" stroke="none" />
      <path d="M0 0L0.1 0L0.1 0.1L0 0.1L0 0Z" transform="translate(0.5 0.4955986)" id="Rectangle" fill="none" stroke="#95989A" stroke-width="1" />
    </g>
    <g id="Rectangle_36" transform="translate(17 7.512324)">
      <path d="M0 0L1 0L1 0.991197L0 0.991197L0 0Z" id="Rectangle" fill="#FFFFFF" stroke="none" />
      <path d="M0 0L0.1 0L0.1 0.1L0 0.1L0 0Z" transform="translate(0.5 0.4955986)" id="Rectangle" fill="none" stroke="#95989A" stroke-width="1" />
    </g>
    <g id="Rectangle_39" transform="translate(17 11.47711)">
      <path d="M0 0L1 0L1 0.991197L0 0.991197L0 0Z" id="Rectangle" fill="#FFFFFF" stroke="none" />
      <path d="M0 0L0.1 0L0.1 0.1L0 0.1L0 0Z" transform="translate(0.5 0.4955986)" id="Rectangle" fill="none" stroke="#95989A" stroke-width="1" />
    </g>
    <path d="M0 0L1 0L1 4.55951L0 4.55951L0 0Z" transform="translate(5 0.5739437)" id="Rectangle_45" fill="#272727" stroke="none" />
    <path d="M0 0L1 0L1 4.55951L0 4.55951L0 0Z" transform="translate(17 0.5739437)" id="Rectangle_46" fill="#272727" stroke="none" />
  </g>
</svg>