<?xml version="1.0" encoding="utf-8"?>
<svg width="23px" height="19px" viewBox="0 0 23 19" version="1.1" xmlns:xlink="http://www.w3.org/1999/xlink" xmlns="http://www.w3.org/2000/svg">
  <desc>Created with Lunacy</desc>
  <g id="Group-16">
    <path d="M7.6001 16.2556L0.600103 18.1389C0.451243 18.1691 0.296628 18.1305 0.179908 18.0341C0.0631878 17.9377 -0.00297338 17.7939 0.000102704 17.6433L0.000102704 2.77535C0.00658319 2.33402 0.283968 1.94125 0.700103 1.78416L7.6001 0L7.6001 16.2556Z" transform="translate(-0.0001027043 0.7253521)" id="Path_101" fill="none" stroke="#000000" stroke-width="1" stroke-linecap="round" stroke-linejoin="round" />
    <path d="M7.6 18.238L0 16.2556L0 0L7.6 1.98239L7.6 18.238Z" transform="translate(7.6 0.7253521)" id="Path_102" fill="none" stroke="#000000" stroke-width="1" stroke-linecap="round" stroke-linejoin="round" />
    <path d="M6.9 16.3648L0 18.1489L0 1.89331L7 0.0100385C7.14886 -0.020112 7.30347 0.0184632 7.42019 0.114874C7.53691 0.211284 7.60308 0.35507 7.6 0.505637L7.6 15.2745C7.59619 15.7407 7.32446 16.1639 6.9 16.3648L6.9 16.3648Z" transform="translate(15.3 0.8144333)" id="Path_103" fill="none" stroke="#000000" stroke-width="1" stroke-linecap="round" stroke-linejoin="round" />
  </g>
</svg>