<?xml version="1.0" encoding="utf-8"?>
<svg width="27px" height="27px" viewBox="0 0 27 27" version="1.1" xmlns:xlink="http://www.w3.org/1999/xlink" xmlns="http://www.w3.org/2000/svg">
  <desc>Created with Lunacy</desc>
  <path d="M26.493 21.6249C26.4938 22.9225 25.9741 24.1672 25.0485 25.0847C24.1228 26.0022 22.8671 26.5173 21.558 26.5165L4.935 26.5165C3.62591 26.5173 2.37021 26.0022 1.44455 25.0847C0.518885 24.1672 -0.00079561 22.9225 9.14287e-07 21.6249L9.14287e-07 4.89156C-0.00079561 3.594 0.518885 2.34935 1.44455 1.43183C2.37021 0.514317 3.62591 -0.000788606 4.935 9.06238e-07L21.558 9.06238e-07C22.8671 -0.000788606 24.1228 0.514317 25.0485 1.43183C25.9741 2.34935 26.4938 3.594 26.493 4.89156L26.493 21.6249ZM19.74 9.01097C20.4747 8.51347 21.0231 7.78941 21.3 6.95127C20.6751 7.36094 19.9646 7.62493 19.222 7.72341C18.5497 7.01868 17.5991 6.64215 16.622 6.69356C15.6506 6.67022 14.7121 7.04243 14.025 7.72343C13.338 8.40443 12.9625 9.33475 12.986 10.2975L12.986 11.0697C10.0307 10.9169 7.28551 9.50802 5.454 7.20402C5.16256 7.76479 4.98616 8.37726 4.935 9.00602C4.90193 10.229 5.48628 11.3878 6.493 12.0956C5.85866 12.0449 5.24075 11.87 4.675 11.5811L4.675 11.5811C4.65899 13.3859 5.99016 14.925 7.792 15.1851C7.532 15.4429 7.273 15.4429 6.753 15.4429L5.974 15.4429C6.40668 16.9437 7.77656 17.9891 9.351 18.02C8.09966 19.018 6.54214 19.5628 4.936 19.5643L4.157 19.5643C5.87135 20.6145 7.85504 21.1521 9.87 21.1125C12.6388 21.1555 15.3068 20.0841 17.2647 18.1431C19.2225 16.2021 20.3029 13.5573 20.259 10.813L20.259 10.2985C20.9879 9.83346 21.6078 9.21901 22.077 8.49654C21.2754 8.5443 20.4866 8.71794 19.74 9.01097Z" id="Path_99" fill="#D5D5D5" stroke="none" />
</svg>