<?xml version="1.0" encoding="utf-8"?>
<!-- Generator: Adobe Illustrator 23.0.2, SVG Export Plug-In . SVG Version: 6.00 Build 0)  -->
<svg version="1.1" id="Layer_1" xmlns="http://www.w3.org/2000/svg" xmlns:xlink="http://www.w3.org/1999/xlink" x="0px" y="0px"
	 viewBox="0 0 902.8 1404.5" style="enable-background:new 0 0 902.8 1404.5;" xml:space="preserve">
<style type="text/css">
	.st0{fill:#5C5D67;}
	.st1{fill:#5F606A;}
	.st2{fill:#51535D;}
	.st3{fill:#565862;}
	.st4{fill:#343642;}
	.st5{fill:#7A7B83;}
	.st6{fill:#AAABB1;}
	.st7{fill:#5C5E67;}
	.st8{fill:#5E6069;}
	.st9{fill:#434550;}
	.st10{fill:#F1F1F3;}
	.st11{fill:#3C3E49;}
	.st12{fill:#EBEBED;}
	.st13{fill:#6F7179;}
	.st14{fill:#AAABB0;}
	.st15{fill:#8D8E95;}
	.st16{fill:#AFB1B5;}
	.st17{fill:#BDBDC1;}
	.st18{fill:#A7A7AD;}
	.st19{fill:#B9BBBF;}
	.st20{fill:#B1B1B6;}
	.st21{fill:#C6C6CA;}
	.st22{fill:#B5B5BA;}
	.st23{enable-background:new    ;}
</style>
<title>logowp-pion</title>
<path d="M404.7,2C494.8-6.7,587.1,13.7,666,57.9c77.5,43,141.8,109,183.9,186.9c22.9,42.5,36.6,89.3,44.1,136.8
	c7.8,49.3,8.6,99.7,1.3,149.1c-6.5,42.7-18,84.7-36.1,124c-31.9,70.2-82.4,131.6-144.5,177.2c-67.5,49.5-147.4,79.5-230.9,86.5
	c-12.8,0.8-25.8,1.3-38.5-0.9c4.1-2.1,9-1.5,13.4-2.1C514,912,569.1,899.7,620,877.5c5.2-0.9,9.3-4.4,14.2-6
	c2.9-1.9,6.5-2.6,9.2-4.9c-8.5,2.7-16.3,7.2-24.4,10.9c-39.3,16.7-81.4,26.3-123.7,31c-31.8,3.3-63.8,3.2-95.5-0.1
	c-9.8-0.9-19.4-2.8-29.2-3.9c1.4-0.1,2.8-0.1,4.2,0c96.4,14.2,197.3-3.6,282.7-50.7c95-52.1,170-139.9,205.9-242.2l-1.8,1.2
	c-12.9,36.8-31,71.5-53.8,103.2c-1.2,1.9-2.8,3.7-4.5,5.2c30.5-42.5,53.4-89.9,67.9-140.1c0.5-0.9,0-2.7,1.3-2.9
	c0.1,0.6,0.2,1.7,0.2,2.3c1.7-1.5,1.4-4.5,2.4-6.4l-1.5,0.1c3.6,2.6-3.3,3.9-0.7,0.9c0.4-1.7,0.7-3.4,1-5.1c0.5,1.4,1.1,2.7,1.9,3.8
	c-0.2-1-0.5-3-0.7-4.1c1.6-0.6,2-2,0.9-4.2l2.1,0.5c-2-2.2,0.4-5,0.2-7.5l-1.5,0.4c8.8-35,12.4-71.2,12.6-107.2h0.9
	c-0.1-10.5-0.4-21-0.9-31.6l-2.1,0.6c0.6-0.8,1.2-1.6,1.9-2.4c-0.5-3.6-0.7-7.2-0.7-10.8c-2.3,2.5-0.7,6.1-1.3,9.1
	c-0.2-3.3-1.8-7.7,0.8-10.2c-0.6-5.3-0.7-10.8-2.3-15.8c-0.3,2.2-0.2,4.5-0.9,6.7c-0.1-2.6-0.4-5.6,1.2-7.9
	c-0.2-2.2-0.5-4.4-0.9-6.5c-0.9,1.8-0.7,3.9-0.7,5.8l-0.9,0.1c0.2-2.2-0.2-4.8,1.5-6.5c-0.3-1.6-0.6-3.1-1-4.7
	c-0.9,2.7-1.3,5.6-1.2,8.5c0.7,7.9,1.9,15.8,2.3,23.8l-0.7,0.3l-0.7,0c-1.7-6.8-1-14.3-3.8-20.7c0-1.5-0.1-2.9-0.1-4.3
	c-1.4-1.4-1-3.4-0.7-5.1c-0.4,1.1-0.9,2.3-1.4,3.4c-7-47.5-21.7-93.5-43.5-136.2c-11.9-23.4-25.7-46.1-42-66.7
	c-6.5-8.3-13.5-16.1-20.2-24.1c0.4,2.5,3.2,4.4,4.8,6.4c11.5,13.4,22.2,27.5,32,42.2l-1,0.6l1.4-0.2c1.1,1.5,1.8,3.2,2.1,5.1
	l1.3-0.3l-1.1,1.8l1.6-0.5c-0.2,1.2,0,2.3,0.8,3.3c26.9,43.3,46.4,90.8,57.7,140.5c3.9,17.3,7.2,34.7,8.5,52.4
	c1.1-6-0.7-11.9-1.2-17.9l1.5,0.9c4.6,36.2,5.6,72.9,1.6,109.1l-0.8,1.2c0.1,3,0.6,6.2-0.9,9c0,2.2-0.1,4.4-0.2,6.6l-1.2-0.1
	c0,2.7,1.4,6.3-0.9,8.4c0.1,1.6,0.3,3.2,0.5,4.8c-0.6-1.1-1.2-2.1-1.8-3.2c0.2,3,0.5,6,0.7,9c-0.6-1-1.2-1.9-1.7-2.8
	c-0.3,2.8,1.9,7.1-0.8,9.1c0.1,1.6,0.3,3.1,0.5,4.7l-1.3-3.4c-1.2,4-1.5,8.3-1,12.5l-1.4-0.2c0.1,1.5,0.3,3,0.4,4.5l-1.4-0.8
	c-0.6,2-1.2,3.9-1.8,5.9l1.2-0.1c0,1-0.1,1.9-0.1,2.9l-1.6-0.5c0.3,1.7,0.7,3.4,1.1,5.2c-0.5-1.1-1-2.1-1.4-3.2
	c-4.6,17.1-10.1,33.9-16.6,50.4c0.7,2.1,0.9,5.3-1.5,6.3c0,3-1.7,5.5-2.8,8.2c-0.9,1.9-1.3,4.1-2.8,5.7c0.6-1.9,1.3-3.8,2-5.7
	c-3.2,2.2-3.6,6.8-5.6,10c1-0.5,2-1.1,3-1.7c-16.4,35.5-36.7,69.4-61.7,99.5c-43.8,53.7-99.9,95.9-163.6,123.2
	c-6.2,2.6-12.4,5.5-18.9,7.2c9.5-4,18.7-8.9,28-13.3l-1.9-1.3l2.6,0.7c10.4-5.8,20.9-11.5,30.3-18.8c-7.8,3.3-15.3,7.5-23.1,10.8
	c7-4.4,14.5-8,21.4-12.5c34.5-21,66.8-46.1,94.3-75.8c11.8-13.1,23.3-26.9,31.4-42.6c-8.2,7.9-15.6,16.5-23.9,24.2
	c-8.4,7.5-16.3,15.8-26,21.8c3.1-4.7,7.7-8.2,11.3-12.5c26.7-28.6,49.4-60.7,67.6-95.4c6.5-11.9,12.3-24.1,17.5-36.6
	c2.4-5,3.3-10.5,5.4-15.6c8.7-23.7,15.3-48.1,19.8-73c0.5-2.8,1.3-5.8,0.6-8.6h1.1c0-1.9,0-3.8,0.1-5.6c1.4-1.5,0.8-3.8,1.3-5.7
	c1-6.3,1.8-12.7,2.3-19.1c0.1-1.5,0.5-3.2-0.7-4.4l1.2,0.2c0-2.7,0.2-5.4,0.7-8.1c1.7-6.8,0.3-13.7,0.9-20.6
	c0.8-6.3-0.8-12.6,0.2-18.9c0.8-5.5,1.1-11-0.2-16.4c-1.8-11.2-2.6-22.6-4.3-33.8c-3.6-27.9-10.8-55.1-19.3-81.9
	c-2.7-8.6-5.7-17.1-9.1-25.5c-0.5-1.4-2.1-2.1-2.7-3.4c-11.9-27.5-26.6-53.7-44.1-78.1c-7.3-9.6-14.2-19.6-21.7-29.1
	c-5-6.5-9.6-13.4-16-18.7l-0.4,1.8c-10.1-10.5-20.2-21.1-31.5-30.3c-31.8-26.7-67-49.4-105.1-66c-32.5-13.5-66.2-24-101-29.4
	c-5.4-0.9-10.6-2.5-16-3.1c-29-1.5-58.1-4.2-87.1-1.7c-16.2,3.7-32.8,4.9-48.8,8.8c-46.7,10.1-91.3,27.9-132,52.8
	c-32.2,19.9-61.7,43.9-87.7,71.4c-1.4,1.4-3.5,1.7-4.8,3.2c-6.7,8.3-13.6,16.5-20.4,24.7c-12.5,17.9-26.7,34.8-36.2,54.6
	c-3.2,6.2-6.3,12.4-9.9,18.4c-14.3,25.2-23.5,52.9-31.1,80.8c-7.9,28-12.9,56.7-15.1,85.7c-1.2,17.8-2.1,35.6-2.6,53.4
	c-5-65.7,7.5-132,30.9-193.4c3-8.8,7.3-17.1,10.2-25.8c-1.7,1.4-1.7,3.9-2.7,5.8C29,316.7,15.2,372.5,10.5,428.6
	C9.5,439,8.9,449.5,8,459.9c-0.3,2.5-0.3,5.1-1.7,7.3c-2-9.9-1.4-20.1-1.3-30.1c0.9-26.4,4.3-52.7,10.1-78.5
	c5.8-28,15.5-54.9,25.4-81.6c-9,18.1-15.4,37.3-22.5,56.1c0.7-4.5,2.1-8.8,2.5-13.3C11.1,345,5,371.3,1,397.9
	c-0.6,3-0.9,6.1-0.8,9.2c-0.6-5.7,1-11.3,1.7-16.9c9.5-59.9,30.3-117.5,61.2-169.7C94.3,168.3,135.6,122,184.6,86
	C248.5,38.6,325.5,9,404.7,2z M455.1,5.4c1.1,1.3,5.1,1.4,6.2,0C459.3,4.6,457.1,4.6,455.1,5.4L455.1,5.4z M466,5.2
	c0.3,1.3,1,1.5,2.2,0.6C468,4.6,467.2,4.4,466,5.2z M470.1,5.2c0.2,1.3,0.9,1.6,2.1,0.7C472,4.6,471.3,4.3,470.1,5.2L470.1,5.2z
	 M474,6.2l20.4,1.7c2.3,0.9,4.7,1.5,7.1,1.8c19,2.7,37.7,6.6,56.1,11.8c70,19.2,134.3,57,186.8,106.9c4.3,4.7,8.9,9.2,13.6,13.5
	c0.9,0.9,1.7,1.9,2.3,3.1c-0.3-1.3-0.9-2.6-1.7-3.6c-9.7-10.7-20-20.8-31-30.2c-43.4-37.2-94.2-65.4-147.9-84.7
	c-22-7.9-45.1-12.3-68-16.5c-3.5-0.4-7-0.7-10.5-0.8c-2.3-0.1-4.6-0.5-6.9-1.1L474,6.2z M860,360.1c-0.5,0.1-0.2,0.5,0.3,0.5
	c-0.3,2.1,0.2,4.3,0.5,3.6c0.5,3.2,0.6,7.1,1.1,5.8c0.3,3,1.2,6,1.7,4.5c15.7-27.4,12.7-32.3,16.8-12.8L860,360.1z M860,405.4
	c0.7,3.5-0.7,7.9,1.6,10.9c-0.2-3.4-0.2-6.7-0.4-10.1L860,405.4z M862.6,449.8c-0.7,1.4-1,4.3,0.4,5.3c21,0.2,21.5-2.8,20-3.6
	L862.6,449.8z M881.9,479.5c-0.9,1.2-0.7,2,0.6,2.3C883.3,480.5,883.1,479.8,881.9,479.5z M893.9,521.3c-1.5,2.2-0.7,5.2-1.3,7.7
	c-4.2,24.5-10.3,48.7-18.3,72.2c-2.2,7-5.3,13.7-7.3,20.7c12.4-30.9,23.9-62.7,26.5-96.1C893.2,524.3,894.6,522.9,893.9,521.3z
	 M868.9,565.9l1.8,20.9c1.8-0.7,2.1-4.1,2-5.8c-1.6,0.9-2.3,4-2,5.8L868.9,565.9z M868,567.5l-0.4,0.9c2.8,23,4.4,19,2.2,20
	L868,567.5z M866.7,570.3c-0.8,6.8-4.9,13-5.7,19.7c1.5,0.2,1.2-2,1.8-2.9c1.9-5.8,3.9-11.6,5.6-17.4L866.7,570.3z M851.1,620.6
	c-0.9,1.4-1.4,3.1-2.4,4.5c0.8,0.2,1.6,0,2.1-0.5C851.4,623.5,852.1,621.5,851.1,620.6z M845.1,668.4
	c-35.4,66.6-86.4,123.8-148.5,166.7c-14.8,11.8-31.4,20.9-48,29.9c3.6-1.1,6.8-3.1,10.1-4.8C736,819.9,799.7,755,840.9,678.4
	c9.2-17.6,18-35.5,24.6-54.2C859.6,639.3,852.9,654.1,845.1,668.4L845.1,668.4z M849.1,626.3l-1.5,1.8c-0.4,1.1-1.7,3.7-0.3,4.2
	c0.3-0.7,1-2,1.3-2.7c0.2-1-0.1-1.5-0.9-1.4L849.1,626.3z M840.9,644.3l-0.9,2.1l-1.7,2.1l-0.8,2.2c1.6,1.9,3.2-3.7,0.8-2.2
	L840.9,644.3z M839.3,647.2c-0.6,1.9-1.3,3.7-2.3,5.5c-5.6,10.9-11.5,21.6-18,32c-4,6.8-8.8,13.1-12.7,20
	c8.5-12.2,16.6-24.7,23.9-37.6c3.5-6,6.4-12.3,10.1-18.2c-2.9,3.6-3.3,3-3.6,2.4L839.3,647.2z"/>
<path d="M439.9,217.4c5.8,0.2,11.6,0.2,17.5,0c-0.1,26.4-0.1,52.9,0,79.3c-5.8-0.2-11.7-0.2-17.5,0
	C440.1,270.3,440.1,243.9,439.9,217.4z"/>
<path d="M226.5,284.6c4.1-4.1,8.2-8.2,12.4-12.4c18.6,18.8,37.4,37.2,55.9,56.1c-4.2,4-8.2,8.1-12.3,12.2
	C263.8,321.9,245.2,303.2,226.5,284.6z"/>
<path d="M602.6,328.2c18.7-18.6,37.3-37.3,55.9-55.9c4.1,4.1,8.3,8.2,12.3,12.4c-18.8,18.5-37.3,37.2-56,56
	C610.8,336.4,606.7,332.4,602.6,328.2z"/>
<path d="M349.8,371.3c65.9,0,131.8,0,197.7,0c20.2,20.1,40.4,40.4,60.4,60.6C554.7,520.2,501.7,608.6,448.7,697
	c-53.2-88.3-106.3-176.7-159.3-265.2C309.5,411.6,329.6,391.4,349.8,371.3z M368.2,389.9c10.3,10.4,20.7,20.6,31,31
	c10.2-10.4,20.7-20.6,30.9-31C409.5,389.8,388.9,389.8,368.2,389.9z M467.1,389.9c10.3,10.4,20.7,20.5,30.9,31
	c10.5-10.2,20.8-20.6,31.1-31C508.5,389.8,487.8,389.8,467.1,389.9L467.1,389.9z M321.3,424.3c18.9,0.1,37.9,0.1,56.9,0
	c-9.4-9.6-18.9-19-28.5-28.4C340.3,405.4,330.7,414.7,321.3,424.3z M420.3,424.3c18.9,0.1,37.9,0.1,56.8,0c-9.4-9.5-19-19-28.5-28.4
	C439.2,405.3,429.6,414.6,420.3,424.3L420.3,424.3z M519.1,424.3c18.9,0,37.9,0.1,56.8,0c-9.3-9.6-18.9-18.9-28.3-28.4
	C538.1,405.3,528.6,414.7,519.1,424.3L519.1,424.3z M315.6,441.9c38.2,63.7,76.5,127.4,114.8,191.1
	c-12.8-63.7-25.5-127.5-38.3-191.2C366.6,441.9,341.1,441.7,315.6,441.9z M409.8,441.9c10.8,54,21.7,108.1,32.5,162.1
	c2.3,10.4,3.8,20.9,6.5,31.2c13.1-64.4,25.8-128.9,38.8-193.3C461.6,441.7,435.7,441.8,409.8,441.9z M467,632.9
	c38.2-63.7,76.4-127.4,114.7-191.1c-25.5-0.1-51,0-76.4-0.1C492.4,505.5,479.7,569.2,467,632.9L467,632.9z"/>
<path d="M883.9,410.5l1.6,0.8c1.6,23.2,2.7,46.6,1,69.8c0.1,10.1-2,20-2.3,30.1c-0.4-3.4-0.1-6.9,0.6-10.2c1-11.9,1.6-23.9,1.8-35.8
	c1-5.7-0.4-11.4-0.1-17.1C886.2,435.5,885.1,423,883.9,410.5z"/>
<path d="M877.2,559.2c1.3,0.4,0.5,2.9-0.4,3.5C875.5,562.1,876.4,559.9,877.2,559.2z"/>
<path d="M34.7,636.9c6.7,14.1,13.4,28.2,21.4,41.6c7.9,11.9,14.7,24.4,23.1,36c39.2,57.5,91.9,105.5,152.2,139.9
	c3.4,2.1,7.1,3.7,10.2,6.2c-42-21.7-80.9-49.7-114-83.6c-38.2-38.7-69-84.2-90.8-134C36,641,35.3,639,34.7,636.9z"/>
<path d="M730,762.3c3.2-3.2,6-6.8,9.7-9.4c-7.5,7.2-13.5,16-21.8,22.5c-5.4,4-10.7,8.1-16.3,11.7c3-3.2,6.8-5.4,10-8.3
	C717.6,773.2,723.9,767.9,730,762.3z"/>
<path d="M237,817.2"/>
<path d="M247,823"/>
<path d="M212.9,826.2"/>
<path d="M559.6,859.7c13-2.7,25.4-7.7,37.8-12.3c-0.1,0.3-0.2,0.9-0.3,1.2c-7.8,3.6-16.3,5.3-24.5,8.2
	C568.4,858,564.1,859.9,559.6,859.7z"/>
<path d="M280.1,878.9c10.8,3.7,21.2,8.4,32.1,11.7c15,4.8,30.1,9.4,45.6,12c-3.8,0.3-7.4-0.7-11.1-1.5
	C323.6,897,301.2,889.1,280.1,878.9z"/>
<path class="st0" d="M455.1,5.4c2-0.8,4.2-0.8,6.2,0C460.2,6.8,456.2,6.7,455.1,5.4z"/>
<path class="st1" d="M466,5.2c1.2-0.9,2-0.7,2.2,0.6C467,6.7,466.3,6.5,466,5.2z"/>
<path class="st2" d="M470.1,5.2c1.2-0.9,1.9-0.7,2.1,0.7C471,6.8,470.3,6.6,470.1,5.2z"/>
<path class="st3" d="M474,6.2"/>
<path class="st4" d="M878.5,383.7c1.7,1,1.2,4,0.9,5.7h-0.3C878.5,387.6,878.3,385.7,878.5,383.7z"/>
<path class="st5" d="M886.3,405.9c-1.2-1.2-1.2-5.1,0.1-6.2C887,401.7,886.9,403.8,886.3,405.9z"/>
<path class="st6" d="M880.3,407.1l1.2,0.8c0.2,3.4,0.2,6.7,0.4,10.1C879.7,414.9,881.1,410.6,880.3,407.1z"/>
<path class="st7" d="M883,451.4c1.5,0.8,1,3.8,0.4,5.3C881.9,455.7,882.3,452.8,883,451.4z"/>
<path class="st8" d="M881.9,479.5c1.3,0.3,1.5,1.1,0.6,2.3C881.2,481.4,880.9,480.7,881.9,479.5z"/>
<path class="st9" d="M875.6,563.8c1.9-1.5,1.2,2.7-0.2,1L875.6,563.8z"/>
<path class="st10" d="M868.9,565.9"/>
<path class="st11" d="M874.8,567.2"/>
<path class="st12" d="M869.8,588.4c2.2-1,0.5,3-0.4,0.9L869.8,588.4z"/>
<path class="st13" d="M843.9,639.9"/>
<path class="st14" d="M194,813.3"/>
<path class="st15" d="M207,822.3"/>
<path class="st16" d="M281,867.1"/>
<path class="st17" d="M310,878.2c1.2-0.8,2-0.6,2.4,0.7C311.1,879.7,310.3,879.5,310,878.2z"/>
<path class="st18" d="M324.9,879.2c0.9-0.7,3.4-0.8,3.5,0.7C327.5,880.5,325,880.6,324.9,879.2z"/>
<path class="st19" d="M318.9,881.2c1.7-0.6,4.8,0,5.6,1.6C322.8,883.4,319.8,882.7,318.9,881.2z"/>
<path class="st20" d="M335,882.2c1.1-0.7,3.8-0.8,4.4,0.6C338.2,883.4,335.5,883.7,335,882.2z"/>
<path class="st21" d="M327.7,883.5c2.9,0.5,5.7,1.3,8.3,2.6C333.2,885.7,329.3,886.2,327.7,883.5z"/>
<path class="st22" d="M347,885.2c0.8-0.8,3.3-0.8,3.4,0.5C349.5,886.4,347.1,886.6,347,885.2z"/>
<g class="st23">
	<path d="M63.3,1014.2h11.3l16.9,42.7l17.1-42.7h11.2l-21,51.3l23,54.4l43.5-106.6h12.9l-50.8,120.3H117l-25.2-59.5l-25.4,59.5H55.8
		L5.2,1013.4h12.5l43.7,106.6l22.9-54.4L63.3,1014.2z"/>
</g>
<g class="st23">
	<path d="M173.4,1133.7l50.3-120.3h9.7l50.3,120.3h-12.7l-15.6-37.6h-54l-15.4,37.6H173.4z M228.6,1027.3l-24.7,59.5h48.8
		L228.6,1027.3z"/>
	<path d="M301.1,1133.7v-120.3h50.7c5.2,0,10,1.1,14.4,3.3c4.4,2.2,8.2,5.1,11.4,8.6c3.2,3.6,5.6,7.6,7.4,12.1
		c1.7,4.5,2.6,9.1,2.6,13.7c0,4.4-0.7,8.6-1.9,12.6c-1.3,4-3.1,7.6-5.5,10.8s-5.2,5.9-8.5,8.1c-3.3,2.2-6.9,3.7-11,4.5l29.6,46.4
		h-13.4l-28.5-44.4h-35.6v44.4H301.1z M312.8,1078.8h39.5c3.5,0,6.7-0.8,9.6-2.3c2.9-1.5,5.3-3.6,7.4-6.2c2-2.6,3.6-5.5,4.7-8.8
		c1.1-3.3,1.7-6.7,1.7-10.3c0-3.6-0.7-7.1-1.9-10.4c-1.3-3.3-3-6.2-5.3-8.7c-2.2-2.5-4.8-4.5-7.8-5.9c-3-1.5-6.1-2.2-9.4-2.2h-38.5
		V1078.8z"/>
	<path d="M483.5,1035.9c-3.4-3.8-7.9-6.9-13.6-9.3c-5.7-2.4-12.1-3.6-19.2-3.6c-10.7,0-18.5,2-23.4,6c-4.9,4-7.3,9.5-7.3,16.3
		c0,3.6,0.6,6.6,1.9,8.9c1.3,2.3,3.3,4.3,6.1,6c2.8,1.7,6.3,3.2,10.5,4.4c4.2,1.2,9.2,2.5,15,3.7c6.4,1.4,12.2,2.9,17.3,4.5
		c5.1,1.6,9.4,3.7,13,6.3c3.6,2.5,6.4,5.6,8.3,9.3c1.9,3.7,2.9,8.2,2.9,13.6c0,5.5-1.1,10.3-3.2,14.4c-2.1,4.1-5.1,7.5-9,10.2
		c-3.8,2.7-8.4,4.7-13.7,6c-5.3,1.3-11.1,1.9-17.3,1.9c-18.9,0-35-5.8-48.3-17.4l5.8-9.7c4.4,4.6,10.3,8.6,17.8,11.8
		s15.8,4.8,24.9,4.8c9.6,0,17.1-1.7,22.5-5.2c5.4-3.4,8.1-8.7,8.1-15.7c0-3.7-0.8-6.9-2.3-9.4s-3.8-4.7-6.9-6.6
		c-3-1.9-6.9-3.5-11.4-4.8c-4.6-1.4-9.9-2.7-15.8-4.1c-6.3-1.5-11.9-3-16.6-4.6c-4.7-1.6-8.7-3.6-11.9-5.9c-3.2-2.4-5.6-5.2-7.3-8.6
		c-1.6-3.3-2.5-7.4-2.5-12.3c0-5.5,1-10.5,3.1-14.8c2.1-4.3,5-8,8.8-10.8c3.8-2.9,8.3-5.1,13.6-6.6s11-2.3,17.4-2.3
		c7.9,0,15,1.2,21.3,3.6c6.3,2.4,11.9,5.8,17,10.2L483.5,1035.9z"/>
	<path d="M506.1,1124.4l81.8-100.5h-80.5v-10.5h94.2v9.3l-80.8,100.5h80.6v10.5h-95.4V1124.4z"/>
</g>
<g class="st23">
	<path d="M707.8,1023.9H665v109.8h-11.9v-109.8h-42.9v-10.5h97.6V1023.9z"/>
	<path d="M689.7,1133.7l50.3-120.3h9.7l50.3,120.3h-12.7l-15.6-37.6h-54l-15.4,37.6H689.7z M744.9,1027.3l-24.7,59.5H769
		L744.9,1027.3z"/>
</g>
<g class="st23">
	<path d="M902.8,1023.9h-42.9v109.8h-11.9v-109.8h-42.9v-10.5h97.6V1023.9z"/>
</g>
<g class="st23">
	<path d="M22.6,1349.3v-175h73.9c7.7,0,14.8,1.6,21.2,4.8c6.4,3.2,12,7.4,16.7,12.6c4.7,5.2,8.3,11.1,10.9,17.6
		c2.6,6.6,3.9,13.2,3.9,20c0,7.2-1.2,14.2-3.6,20.8c-2.4,6.7-5.9,12.5-10.4,17.6c-4.5,5.1-9.9,9.2-16.2,12.3
		c-6.3,3.1-13.3,4.7-21,4.7H40v64.6H22.6z M40,1269.5H97c5.2,0,9.9-1.1,14.2-3.3s7.9-5.2,10.9-8.9s5.4-8,7-12.8
		c1.7-4.8,2.5-9.9,2.5-15.2c0-5.4-1-10.6-2.9-15.4c-1.9-4.8-4.5-9.1-7.8-12.7c-3.3-3.6-7.1-6.4-11.6-8.5c-4.4-2.1-9.1-3.1-14-3.1H40
		V1269.5z"/>
	<path d="M178.7,1349.3v-174.7H196v174.7H178.7z"/>
	<path d="M361.2,1334v15.3h-52.5c-7.5,4.6-12.9,8.7-16,12.2c-3.1,3.5-4.6,7.1-4.6,10.7c0,6.1,4.4,9.7,13.1,10.8l-4.8,9.4
		c-6.2-1.3-10.9-3.6-14.1-6.8c-3.2-3.2-4.8-6.9-4.8-11.2c0-4.1,1.5-8.2,4.5-12.3c3-4.1,7.8-8.4,14.3-12.8h-55v-175h117.6v15.3H258.6
		v63.1h87.5v14.5h-87.5v66.8H361.2z"/>
	<path d="M395.4,1349.3v-174.7h17.3v101.5l98.3-101.8h19.4l-72.9,76.9l76.9,98.1H515l-68.4-88l-33.9,34.3v53.7H395.4z"/>
	<path d="M573.8,1206.4v142.9h-17.3v-175H570L688.2,1320v-145.4h17.3v174.7h-15.1L573.8,1206.4z"/>
</g>
<g class="st23">
	<path d="M731.9,1349.3l74.7-175h14.3l74.7,175h-18.9l-23.1-54.7h-80.2l-22.9,54.7H731.9z M813.8,1194.5l-36.7,86.5h72.4
		L813.8,1194.5z"/>
</g>
</svg>
