<?xml version="1.0" encoding="utf-8"?>
<!-- Generator: Adobe Illustrator 23.0.2, SVG Export Plug-In . SVG Version: 6.00 Build 0)  -->
<svg version="1.1" id="Layer_1" xmlns="http://www.w3.org/2000/svg" xmlns:xlink="http://www.w3.org/1999/xlink" x="0px" y="0px"
	 viewBox="0 0 3077.2 974" style="enable-background:new 0 0 3077.2 974;" xml:space="preserve">
<style type="text/css">
	.st0{fill:#5C5D67;}
	.st1{fill:#5F606A;}
	.st2{fill:#51535D;}
	.st3{fill:#565862;}
	.st4{fill:#343642;}
	.st5{fill:#7A7B83;}
	.st6{fill:#AAABB1;}
	.st7{fill:#5C5E67;}
	.st8{fill:#5E6069;}
	.st9{fill:#434550;}
	.st10{fill:#F1F1F3;}
	.st11{fill:#3C3E49;}
	.st12{fill:#EBEBED;}
	.st13{fill:#6F7179;}
	.st14{fill:#AAABB0;}
	.st15{fill:#8D8E95;}
	.st16{fill:#AFB1B5;}
	.st17{fill:#BDBDC1;}
	.st18{fill:#A7A7AD;}
	.st19{fill:#B9BBBF;}
	.st20{fill:#B1B1B6;}
	.st21{fill:#C6C6CA;}
	.st22{fill:#B5B5BA;}
	.st23{enable-background:new    ;}
</style>
<title>logowp</title>
<path d="M404.7,21.9c90.1-8.7,182.4,11.8,261.3,55.9c77.5,43,141.8,109,183.9,186.9c22.9,42.5,36.6,89.3,44.1,136.8
	c7.8,49.3,8.6,99.7,1.3,149.1c-6.5,42.7-18,84.7-36.1,124c-31.9,70.2-82.4,131.6-144.5,177.2c-67.5,49.5-147.4,79.5-230.9,86.5
	c-12.8,0.8-25.8,1.3-38.5-0.9c4.1-2.1,9-1.5,13.4-2.1c55.4-3.4,110.5-15.7,161.4-37.9c5.2-0.9,9.3-4.4,14.2-6
	c2.9-1.9,6.5-2.6,9.2-4.9c-8.5,2.7-16.3,7.2-24.4,10.9c-39.3,16.7-81.4,26.3-123.7,31c-31.8,3.3-63.8,3.2-95.5-0.1
	c-9.8-0.9-19.4-2.8-29.2-3.9c1.4-0.1,2.8-0.1,4.2,0c96.4,14.2,197.3-3.6,282.7-50.7c95-52.1,170-139.9,205.9-242.2l-1.8,1.2
	c-12.9,36.8-31,71.5-53.8,103.2c-1.2,1.9-2.8,3.7-4.5,5.2c30.5-42.5,53.4-89.9,67.9-140.1c0.5-0.9,0-2.7,1.3-2.9
	c0.1,0.6,0.2,1.7,0.2,2.3c1.7-1.5,1.4-4.5,2.4-6.4l-1.5,0.1c3.6,2.6-3.3,3.9-0.7,0.9c0.4-1.7,0.7-3.4,1-5.1c0.5,1.4,1.1,2.7,1.9,3.8
	c-0.2-1-0.5-3-0.7-4.1c1.6-0.6,2-2,0.9-4.2l2.1,0.5c-2-2.2,0.4-5,0.2-7.5l-1.5,0.4c8.8-35,12.4-71.2,12.6-107.2h0.9
	c-0.1-10.5-0.4-21-0.9-31.6l-2.1,0.6c0.6-0.8,1.2-1.6,1.9-2.4c-0.5-3.6-0.7-7.2-0.7-10.8c-2.3,2.5-0.7,6.1-1.3,9.1
	c-0.2-3.3-1.8-7.7,0.8-10.2c-0.6-5.3-0.7-10.8-2.3-15.8c-0.3,2.2-0.2,4.5-0.9,6.7c-0.1-2.6-0.4-5.6,1.2-7.9
	c-0.2-2.2-0.5-4.4-0.9-6.5c-0.9,1.8-0.7,3.9-0.7,5.8l-0.9,0.1c0.2-2.2-0.2-4.8,1.5-6.5c-0.3-1.6-0.6-3.1-1-4.7
	c-0.9,2.7-1.3,5.6-1.2,8.5c0.7,7.9,1.9,15.8,2.3,23.8l-0.7,0.3l-0.7,0c-1.7-6.8-1-14.3-3.8-20.7c0-1.5-0.1-2.9-0.1-4.3
	c-1.4-1.4-1-3.4-0.7-5.1c-0.4,1.1-0.9,2.3-1.4,3.4c-7-47.5-21.7-93.5-43.5-136.2c-11.9-23.4-25.7-46.1-42-66.7
	c-6.5-8.3-13.5-16.1-20.2-24.1c0.4,2.5,3.2,4.4,4.8,6.4c11.5,13.4,22.2,27.5,32,42.2l-1,0.6l1.4-0.2c1.1,1.5,1.8,3.2,2.1,5.1
	l1.3-0.3l-1.1,1.8l1.6-0.5c-0.2,1.2,0,2.3,0.8,3.3c26.9,43.3,46.4,90.8,57.7,140.5c3.9,17.3,7.2,34.7,8.5,52.4
	c1.1-6-0.7-11.9-1.2-17.9l1.5,0.9c4.6,36.2,5.6,72.9,1.6,109.1l-0.8,1.2c0.1,3,0.6,6.2-0.9,9c0,2.2-0.1,4.4-0.2,6.6l-1.2-0.1
	c0,2.7,1.4,6.3-0.9,8.4c0.1,1.6,0.3,3.2,0.5,4.8c-0.6-1.1-1.2-2.1-1.8-3.2c0.2,3,0.5,6,0.7,9c-0.6-1-1.2-1.9-1.7-2.8
	c-0.3,2.8,1.9,7.1-0.8,9.1c0.1,1.6,0.3,3.1,0.5,4.7l-1.3-3.4c-1.2,4-1.5,8.3-1,12.5l-1.4-0.2c0.1,1.5,0.3,3,0.4,4.5l-1.4-0.8
	c-0.6,2-1.2,3.9-1.8,5.9l1.2-0.1c0,1-0.1,1.9-0.1,2.9l-1.6-0.5c0.3,1.7,0.7,3.4,1.1,5.2c-0.5-1.1-1-2.1-1.4-3.2
	c-4.6,17.1-10.1,33.9-16.6,50.4c0.7,2.1,0.9,5.3-1.5,6.3c0,3-1.7,5.5-2.8,8.2c-0.9,1.9-1.3,4.1-2.8,5.7c0.6-1.9,1.3-3.8,2-5.7
	c-3.2,2.2-3.6,6.8-5.6,10c1-0.5,2-1.1,3-1.7c-16.4,35.5-36.7,69.4-61.7,99.5c-43.8,53.7-99.9,95.9-163.6,123.2
	c-6.2,2.6-12.4,5.5-18.9,7.2c9.5-4,18.7-8.9,28-13.3l-1.9-1.3l2.6,0.7c10.4-5.8,20.9-11.5,30.3-18.8c-7.8,3.3-15.3,7.5-23.1,10.8
	c7-4.4,14.5-8,21.4-12.5c34.5-21,66.8-46.1,94.3-75.8c11.8-13.1,23.3-26.9,31.4-42.6c-8.2,7.9-15.6,16.5-23.9,24.2
	c-8.4,7.5-16.3,15.8-26,21.8c3.1-4.7,7.7-8.2,11.3-12.5c26.7-28.6,49.4-60.7,67.6-95.4c6.5-11.9,12.3-24.1,17.5-36.6
	c2.4-5,3.3-10.5,5.4-15.6c8.7-23.7,15.3-48.1,19.8-73c0.5-2.8,1.3-5.8,0.6-8.6h1.1c0-1.9,0-3.8,0.1-5.6c1.4-1.5,0.8-3.8,1.3-5.7
	c1-6.3,1.8-12.7,2.3-19.1c0.1-1.5,0.5-3.2-0.7-4.4l1.2,0.2c0-2.7,0.2-5.4,0.7-8.1c1.7-6.8,0.3-13.7,0.9-20.6
	c0.8-6.3-0.8-12.6,0.2-18.9c0.8-5.5,1.1-11-0.2-16.4c-1.8-11.2-2.6-22.6-4.3-33.8c-3.6-27.9-10.8-55.1-19.3-81.9
	c-2.7-8.6-5.7-17.1-9.1-25.5c-0.5-1.4-2.1-2.1-2.7-3.4c-11.9-27.5-26.6-53.7-44.1-78.1c-7.3-9.6-14.2-19.6-21.7-29.1
	c-5-6.5-9.6-13.4-16-18.7l-0.4,1.8c-10.1-10.5-20.2-21.1-31.5-30.3c-31.8-26.7-67-49.4-105.1-66c-32.5-13.5-66.2-24-101-29.4
	c-5.4-0.9-10.6-2.5-16-3.1c-29-1.5-58.1-4.2-87.1-1.7c-16.2,3.7-32.8,4.9-48.8,8.8c-46.7,10.1-91.3,27.9-132,52.8
	c-32.2,19.9-61.7,43.9-87.7,71.4c-1.4,1.4-3.5,1.7-4.8,3.2c-6.7,8.3-13.6,16.5-20.4,24.7c-12.5,17.9-26.7,34.8-36.2,54.6
	c-3.2,6.2-6.3,12.4-9.9,18.4c-14.3,25.2-23.5,52.9-31.1,80.8c-7.9,28-12.9,56.7-15.1,85.7c-1.2,17.8-2.1,35.6-2.6,53.4
	c-5-65.7,7.5-132,30.9-193.4c3-8.8,7.3-17.1,10.2-25.8c-1.7,1.4-1.7,3.9-2.7,5.8C29,336.7,15.2,392.4,10.5,448.5
	c-0.9,10.4-1.5,20.9-2.5,31.3c-0.3,2.5-0.3,5.1-1.7,7.3C4.3,477.2,4.9,467,5,457c0.9-26.4,4.3-52.7,10.1-78.5
	c5.8-28,15.5-54.9,25.4-81.6c-9,18.1-15.4,37.3-22.5,56.1c0.7-4.5,2.1-8.8,2.5-13.3C11.1,365,5,391.3,1,417.8
	c-0.6,3-0.9,6.1-0.8,9.2c-0.6-5.7,1-11.3,1.7-16.9c9.5-59.9,30.3-117.5,61.2-169.7c31.2-52.2,72.5-98.4,121.5-134.5
	C248.5,58.5,325.5,28.9,404.7,21.9z M455.1,25.3c1.1,1.3,5.1,1.4,6.2,0C459.3,24.5,457.1,24.5,455.1,25.3L455.1,25.3z M466,25.1
	c0.3,1.3,1,1.5,2.2,0.6C468,24.5,467.2,24.3,466,25.1z M470.1,25.1c0.2,1.3,0.9,1.6,2.1,0.7C472,24.5,471.3,24.2,470.1,25.1
	L470.1,25.1z M474,26.1l20.4,1.7c2.3,0.9,4.7,1.5,7.1,1.8c19,2.7,37.7,6.6,56.1,11.8c70,19.2,134.3,57,186.8,106.9
	c4.3,4.7,8.9,9.2,13.6,13.5c0.9,0.9,1.7,1.9,2.3,3.1c-0.3-1.3-0.9-2.6-1.7-3.6c-9.7-10.7-20-20.8-31-30.2
	c-43.4-37.2-94.2-65.4-147.9-84.7c-22-7.9-45.1-12.3-68-16.5c-3.5-0.4-7-0.7-10.5-0.8c-2.3-0.1-4.6-0.5-6.9-1.1L474,26.1z M860,380
	c-0.5,0.1-0.2,0.5,0.3,0.5c-0.3,2.1,0.2,4.3,0.5,3.6c0.5,3.2,0.6,7.1,1.1,5.8c0.3,3,1.2,6,1.7,4.5c15.7-27.4,12.7-32.3,16.8-12.8
	L860,380z M860,425.3c0.7,3.5-0.7,7.9,1.6,10.9c-0.2-3.4-0.2-6.7-0.4-10.1L860,425.3z M862.6,469.7c-0.7,1.4-1,4.3,0.4,5.3
	c21,0.2,21.5-2.8,20-3.6L862.6,469.7z M881.9,499.4c-0.9,1.2-0.7,2,0.6,2.3C883.3,500.4,883.1,499.7,881.9,499.4z M893.9,541.2
	c-1.5,2.2-0.7,5.2-1.3,7.7c-4.2,24.5-10.3,48.7-18.3,72.2c-2.2,7-5.3,13.7-7.3,20.7c12.4-30.9,23.9-62.7,26.5-96.1
	C893.2,544.2,894.6,542.8,893.9,541.2z M868.9,585.8l1.8,20.9c1.8-0.7,2.1-4.1,2-5.8c-1.6,0.9-2.3,4-2,5.8L868.9,585.8z M868,587.4
	l-0.4,0.9c2.8,23,4.4,19,2.2,20L868,587.4z M866.7,590.2c-0.8,6.8-4.9,13-5.7,19.7c1.5,0.2,1.2-2,1.8-2.9c1.9-5.8,3.9-11.6,5.6-17.4
	L866.7,590.2z M851.1,640.5c-0.9,1.4-1.4,3.1-2.4,4.5c0.8,0.2,1.6,0,2.1-0.5C851.4,643.4,852.1,641.4,851.1,640.5z M845.1,688.3
	C809.7,755,758.8,812.2,696.7,855c-14.8,11.8-31.4,20.9-48,29.9c3.6-1.1,6.8-3.1,10.1-4.8c77.3-40.4,140.9-105.3,182.2-181.9
	c9.2-17.6,18-35.5,24.6-54.2C859.6,659.3,852.9,674.1,845.1,688.3L845.1,688.3z M849.1,646.2l-1.5,1.8c-0.4,1.1-1.7,3.7-0.3,4.2
	c0.3-0.7,1-2,1.3-2.7c0.2-1-0.1-1.5-0.9-1.4L849.1,646.2z M840.9,664.2l-0.9,2.1l-1.7,2.1l-0.8,2.2c1.6,1.9,3.2-3.7,0.8-2.2
	L840.9,664.2z M839.3,667.2c-0.6,1.9-1.3,3.7-2.3,5.5c-5.6,10.9-11.5,21.6-18,32c-4,6.8-8.8,13.1-12.7,20
	c8.5-12.2,16.6-24.7,23.9-37.6c3.5-6,6.4-12.3,10.1-18.2c-2.9,3.6-3.3,3-3.6,2.4L839.3,667.2z"/>
<path d="M439.9,237.3c5.8,0.2,11.6,0.2,17.5,0c-0.1,26.4-0.1,52.9,0,79.3c-5.8-0.2-11.7-0.2-17.5,0
	C440.1,290.2,440.1,263.8,439.9,237.3z"/>
<path d="M226.5,304.5c4.1-4.1,8.2-8.2,12.4-12.4c18.6,18.8,37.4,37.2,55.9,56.1c-4.2,4-8.2,8.1-12.3,12.2
	C263.8,341.8,245.2,323.1,226.5,304.5z"/>
<path d="M602.6,348.1c18.7-18.6,37.3-37.3,55.9-55.9c4.1,4.1,8.3,8.2,12.3,12.4c-18.8,18.5-37.3,37.2-56,56
	C610.8,356.3,606.7,352.3,602.6,348.1z"/>
<path d="M349.8,391.2c65.9,0,131.8,0,197.7,0c20.2,20.1,40.4,40.4,60.4,60.6C554.7,540.2,501.7,628.5,448.7,717
	c-53.2-88.3-106.3-176.7-159.3-265.2C309.5,431.5,329.6,411.3,349.8,391.2z M368.2,409.8c10.3,10.4,20.7,20.6,31,31
	c10.2-10.4,20.7-20.6,30.9-31C409.5,409.7,388.9,409.7,368.2,409.8z M467.1,409.8c10.3,10.4,20.7,20.5,30.9,31
	c10.5-10.2,20.8-20.6,31.1-31C508.5,409.7,487.8,409.7,467.1,409.8L467.1,409.8z M321.3,444.2c18.9,0.1,37.9,0.1,56.9,0
	c-9.4-9.6-18.9-19-28.5-28.4C340.3,425.3,330.7,434.6,321.3,444.2z M420.3,444.2c18.9,0.1,37.9,0.1,56.8,0c-9.4-9.5-19-19-28.5-28.4
	C439.2,425.2,429.6,434.5,420.3,444.2L420.3,444.2z M519.1,444.2c18.9,0,37.9,0.1,56.8,0c-9.3-9.6-18.9-18.9-28.3-28.4
	C538.1,425.2,528.6,434.6,519.1,444.2L519.1,444.2z M315.6,461.8c38.2,63.7,76.5,127.4,114.8,191.1
	c-12.8-63.7-25.5-127.5-38.3-191.2C366.6,461.8,341.1,461.7,315.6,461.8z M409.8,461.8c10.8,54,21.7,108.1,32.5,162.1
	c2.3,10.4,3.8,20.9,6.5,31.2c13.1-64.4,25.8-128.9,38.8-193.3C461.6,461.6,435.7,461.7,409.8,461.8z M467,652.9
	c38.2-63.7,76.4-127.4,114.7-191.1c-25.5-0.1-51,0-76.4-0.1C492.4,525.4,479.7,589.1,467,652.9L467,652.9z"/>
<path d="M883.9,430.4l1.6,0.8c1.6,23.2,2.7,46.6,1,69.8c0.1,10.1-2,20-2.3,30.1c-0.4-3.4-0.1-6.9,0.6-10.2c1-11.9,1.6-23.9,1.8-35.8
	c1-5.7-0.4-11.4-0.1-17.1C886.2,455.4,885.1,442.9,883.9,430.4z"/>
<path d="M877.2,579.2c1.3,0.4,0.5,2.9-0.4,3.5C875.5,582.1,876.4,579.9,877.2,579.2z"/>
<path d="M34.7,656.9c6.7,14.1,13.4,28.2,21.4,41.6c7.9,11.9,14.7,24.4,23.1,36c39.2,57.5,91.9,105.5,152.2,139.9
	c3.4,2.1,7.1,3.7,10.2,6.2c-42-21.7-80.9-49.7-114-83.6c-38.2-38.7-69-84.2-90.8-134C36,660.9,35.3,658.9,34.7,656.9z"/>
<path d="M730,782.2c3.2-3.2,6-6.8,9.7-9.4c-7.5,7.2-13.5,16-21.8,22.5c-5.4,4-10.7,8.1-16.3,11.7c3-3.2,6.8-5.4,10-8.3
	C717.6,793.1,723.9,787.8,730,782.2z"/>
<path d="M237,837.1"/>
<path d="M247,843"/>
<path d="M212.9,846.2"/>
<path d="M559.6,879.6c13-2.7,25.4-7.7,37.8-12.3c-0.1,0.3-0.2,0.9-0.3,1.2c-7.8,3.6-16.3,5.3-24.5,8.2
	C568.4,877.9,564.1,879.8,559.6,879.6z"/>
<path d="M280.1,898.8c10.8,3.7,21.2,8.4,32.1,11.7c15,4.8,30.1,9.4,45.6,12c-3.8,0.3-7.4-0.7-11.1-1.5
	C323.6,917,301.2,909,280.1,898.8z"/>
<path class="st0" d="M455.1,25.3c2-0.8,4.2-0.8,6.2,0C460.2,26.7,456.2,26.6,455.1,25.3z"/>
<path class="st1" d="M466,25.1c1.2-0.9,2-0.7,2.2,0.6C467,26.7,466.3,26.4,466,25.1z"/>
<path class="st2" d="M470.1,25.1c1.2-0.9,1.9-0.7,2.1,0.7C471,26.7,470.3,26.5,470.1,25.1z"/>
<path class="st3" d="M474,26.1"/>
<path class="st4" d="M878.5,403.6c1.7,1,1.2,4,0.9,5.7h-0.3C878.5,407.5,878.3,405.6,878.5,403.6z"/>
<path class="st5" d="M886.3,425.8c-1.2-1.2-1.2-5.1,0.1-6.2C887,421.6,886.9,423.8,886.3,425.8z"/>
<path class="st6" d="M880.3,427l1.2,0.8c0.2,3.4,0.2,6.7,0.4,10.1C879.7,434.8,881.1,430.5,880.3,427z"/>
<path class="st7" d="M883,471.3c1.5,0.8,1,3.8,0.4,5.3C881.9,475.7,882.3,472.8,883,471.3z"/>
<path class="st8" d="M881.9,499.4c1.3,0.3,1.5,1.1,0.6,2.3C881.2,501.4,880.9,500.6,881.9,499.4z"/>
<path class="st9" d="M875.6,583.8c1.9-1.5,1.2,2.7-0.2,1L875.6,583.8z"/>
<path class="st10" d="M868.9,585.8"/>
<path class="st11" d="M874.8,587.2"/>
<path class="st12" d="M869.8,608.4c2.2-1,0.5,3-0.4,0.9L869.8,608.4z"/>
<path class="st13" d="M843.9,659.8"/>
<path class="st14" d="M194,833.2"/>
<path class="st15" d="M207,842.3"/>
<path class="st16" d="M281,887.1"/>
<path class="st17" d="M310,898.1c1.2-0.8,2-0.6,2.4,0.7C311.1,899.6,310.3,899.4,310,898.1z"/>
<path class="st18" d="M324.9,899.2c0.9-0.7,3.4-0.8,3.5,0.7C327.5,900.4,325,900.5,324.9,899.2z"/>
<path class="st19" d="M318.9,901.1c1.7-0.6,4.8,0,5.6,1.6C322.8,903.3,319.8,902.6,318.9,901.1z"/>
<path class="st20" d="M335,902.1c1.1-0.7,3.8-0.8,4.4,0.6C338.2,903.3,335.5,903.6,335,902.1z"/>
<path class="st21" d="M327.7,903.4c2.9,0.5,5.7,1.3,8.3,2.6C333.2,905.6,329.3,906.2,327.7,903.4z"/>
<path class="st22" d="M347,905.1c0.8-0.8,3.3-0.8,3.4,0.5C349.5,906.4,347.1,906.5,347,905.1z"/>
<g class="st23">
	<path d="M1110,59.5h26.6l39.7,100l40.1-100h26.2l-49.2,120.3l54,127.4l102-249.7h30.2l-119.1,281.8h-24.6l-59.1-139.3l-59.5,139.3
		h-24.6L973.9,57.6h29.4l102.4,249.7l53.6-127.4L1110,59.5z"/>
</g>
<g class="st23">
	<path d="M1368,339.4l117.9-281.8h22.6l117.9,281.8h-29.8l-36.5-88.1h-126.6l-36.1,88.1H1368z M1497.4,90.1l-58,139.3h114.3
		L1497.4,90.1z"/>
	<path d="M1667.3,339.4V57.6H1786c12.2,0,23.4,2.6,33.7,7.7s19.2,11.9,26.6,20.2c7.4,8.3,13.2,17.8,17.3,28.4
		c4.1,10.6,6.2,21.3,6.2,32.2c0,10.3-1.5,20.2-4.6,29.6c-3,9.4-7.3,17.9-12.9,25.4c-5.6,7.5-12.2,13.9-19.8,19.1
		c-7.7,5.2-16.3,8.7-25.8,10.5l69.5,108.8h-31.4l-66.7-104h-83.4v104H1667.3z M1694.7,210.8h92.5c8.2,0,15.7-1.8,22.4-5.4
		c6.7-3.6,12.5-8.4,17.3-14.5c4.8-6.1,8.5-13,11.1-20.6c2.6-7.7,4-15.7,4-24.2c0-8.5-1.5-16.6-4.6-24.4c-3-7.8-7.1-14.6-12.3-20.4
		c-5.2-5.8-11.2-10.5-18.3-13.9c-7-3.4-14.4-5.2-22-5.2h-90.1V210.8z"/>
	<path d="M2094.8,110.4c-7.9-9-18.6-16.3-32-21.8c-13.4-5.6-28.4-8.3-45.1-8.3c-25.1,0-43.4,4.7-54.8,14.1
		c-11.4,9.4-17.1,22.2-17.1,38.3c0,8.5,1.5,15.4,4.6,20.8c3,5.4,7.8,10.1,14.3,14.1c6.5,4,14.7,7.4,24.6,10.3
		c9.9,2.9,21.6,5.8,35.1,8.7c15.1,3.2,28.6,6.7,40.5,10.5c11.9,3.8,22.1,8.7,30.6,14.7c8.5,6,14.9,13.2,19.5,21.8
		c4.5,8.6,6.7,19.3,6.7,32c0,13-2.5,24.2-7.5,33.7c-5,9.5-12,17.5-21,23.8c-9,6.4-19.7,11.1-32.2,14.1c-12.4,3-25.9,4.6-40.5,4.6
		c-44.2,0-81.9-13.6-113.1-40.9l13.5-22.6c10.3,10.9,24.2,20,41.7,27.6c17.5,7.5,36.9,11.3,58.3,11.3c22.5,0,40.1-4,52.8-12.1
		c12.7-8.1,19.1-20.3,19.1-36.7c0-8.7-1.8-16.1-5.4-22s-8.9-11.1-16.1-15.5c-7.1-4.4-16.1-8.1-26.8-11.3
		c-10.7-3.2-23.1-6.4-37.1-9.5c-14.8-3.4-27.8-7-38.9-10.7c-11.1-3.7-20.4-8.3-28-13.9c-7.5-5.6-13.2-12.2-17.1-20
		c-3.8-7.8-5.8-17.4-5.8-28.8c0-13,2.4-24.5,7.3-34.7c4.9-10.2,11.8-18.7,20.6-25.4c8.9-6.7,19.5-11.9,31.8-15.5s25.9-5.4,40.7-5.4
		c18.5,0,35.1,2.8,49.8,8.5c14.7,5.7,28,13.7,39.9,24L2094.8,110.4z"/>
	<path d="M2147.6,317.5l191.7-235.4h-188.5V57.6h220.7v21.8l-189.3,235.4h188.9v24.6h-223.5V317.5z"/>
</g>
<g class="st23">
	<path d="M2620.3,82.2h-100.4v257.2h-27.8V82.2h-100.4V57.6h228.6V82.2z"/>
	<path d="M2577.9,339.4l117.9-281.8h22.6l117.9,281.8h-29.8l-36.5-88.1h-126.6l-36.1,88.1H2577.9z M2707.3,90.1l-58,139.3h114.3
		L2707.3,90.1z"/>
</g>
<g class="st23">
	<path d="M3077.2,82.2h-100.4v257.2H2949V82.2h-100.4V57.6h228.6V82.2z"/>
</g>
<g class="st23">
	<path d="M1014.8,844.6v-410H1188c18.1,0,34.6,3.8,49.8,11.3c15.1,7.5,28.2,17.3,39.2,29.4c11,12.1,19.5,25.9,25.6,41.3
		c6.1,15.4,9.1,31,9.1,46.8c0,16.9-2.9,33.2-8.5,48.8c-5.7,15.6-13.8,29.4-24.4,41.3c-10.6,11.9-23.3,21.6-38,28.9
		c-14.7,7.3-31.1,11-49.2,11h-136v151.3H1014.8z M1055.5,657.6h133.7c12.2,0,23.3-2.6,33.3-7.8c10-5.2,18.6-12.1,25.6-20.8
		s12.6-18.7,16.5-30c3.9-11.3,5.9-23.2,5.9-35.5c0-12.7-2.3-24.7-6.8-36.1c-4.5-11.3-10.6-21.3-18.3-29.7
		c-7.7-8.5-16.7-15.1-27.1-19.9c-10.4-4.8-21.3-7.2-32.7-7.2h-130.2V657.6z"/>
	<path d="M1380.6,844.6V435.3h40.6v409.4H1380.6z"/>
	<path d="M1808.1,808.8v35.8H1685c-17.7,10.8-30.1,20.3-37.4,28.6c-7.3,8.3-10.9,16.6-10.9,25.1c0,14.2,10.2,22.7,30.6,25.4
		l-11.2,21.9c-14.5-3.1-25.5-8.4-33-15.9c-7.5-7.5-11.2-16.3-11.2-26.3c0-9.6,3.5-19.3,10.6-28.9c7.1-9.6,18.3-19.6,33.6-30h-129
		v-410h275.6v35.8h-235v147.8h205v34.1h-205v156.5H1808.1z"/>
	<path d="M1888.2,844.6V435.3h40.6v237.9l230.3-238.5h45.3l-170.8,180.1l180.2,229.8h-45.3l-160.2-206.1l-79.5,80.3v125.9H1888.2z"
		/>
	<path d="M2306.4,509.7v334.9h-40.6v-410h31.8l276.8,341.2V435.3h40.6v409.4h-35.3L2306.4,509.7z"/>
</g>
<g class="st23">
	<path d="M2676.8,844.6l174.9-410h33.6l174.9,410h-44.2l-54.2-128.2H2774l-53.6,128.2H2676.8z M2868.8,482l-86,202.7h169.6
		L2868.8,482z"/>
</g>
</svg>
