<?xml version="1.0" encoding="utf-8"?>
<svg width="128px" height="127px" viewBox="0 0 128 127" version="1.1" xmlns:xlink="http://www.w3.org/1999/xlink" xmlns="http://www.w3.org/2000/svg">
  <desc>Created with Lunacy</desc>
  <g id="Group_7">
    <path d="M3.368 6.6767C5.2281 6.6767 6.736 5.18207 6.736 3.33835C6.736 1.49463 5.2281 0 3.368 0C1.50791 0 0 1.49463 0 3.33835C0 5.18207 1.50791 6.6767 3.368 6.6767Z" id="Ellipse_1-2" fill="#CCCCCC" stroke="none" />
    <path d="M3.368 6.6767C5.2281 6.6767 6.736 5.18207 6.736 3.33835C6.736 1.49463 5.2281 0 3.368 0C1.50791 0 0 1.49463 0 3.33835C0 5.18207 1.50791 6.6767 3.368 6.6767Z" transform="translate(0 80.13036)" id="Ellipse_9-2" fill="#CCCCCC" stroke="none" />
    <path d="M3.368 6.6767C5.2281 6.6767 6.736 5.18207 6.736 3.33835C6.736 1.49463 5.2281 0 3.368 0C1.50791 0 0 1.49463 0 3.33835C0 5.18207 1.50791 6.6767 3.368 6.6767Z" transform="translate(0 40.06518)" id="Ellipse_8-2" fill="#CCCCCC" stroke="none" />
    <path d="M3.368 6.6767C5.2281 6.6767 6.736 5.18207 6.736 3.33835C6.736 1.49463 5.2281 0 3.368 0C1.50791 0 0 1.49463 0 3.33835C0 5.18207 1.50791 6.6767 3.368 6.6767Z" transform="translate(0 120.1955)" id="Ellipse_10-2" fill="#CCCCCC" stroke="none" />
    <path d="M3.368 6.6767C5.2281 6.6767 6.736 5.18207 6.736 3.33835C6.736 1.49463 5.2281 0 3.368 0C1.50791 0 0 1.49463 0 3.33835C0 5.18207 1.50791 6.6767 3.368 6.6767Z" transform="translate(80.842 0)" id="Ellipse_3-2" fill="#CCCCCC" stroke="none" />
    <path d="M3.368 6.6767C5.2281 6.6767 6.736 5.18207 6.736 3.33835C6.736 1.49463 5.2281 0 3.368 0C1.50791 0 0 1.49463 0 3.33835C0 5.18207 1.50791 6.6767 3.368 6.6767Z" transform="translate(80.842 80.13036)" id="Ellipse_13-2" fill="#CCCCCC" stroke="none" />
    <path d="M3.368 6.6767C5.2281 6.6767 6.736 5.18207 6.736 3.33835C6.736 1.49463 5.2281 0 3.368 0C1.50791 0 0 1.49463 0 3.33835C0 5.18207 1.50791 6.6767 3.368 6.6767Z" transform="translate(80.842 40.06518)" id="Ellipse_5-2" fill="#CCCCCC" stroke="none" />
    <path d="M3.368 6.6767C5.2281 6.6767 6.736 5.18207 6.736 3.33835C6.736 1.49463 5.2281 0 3.368 0C1.50791 0 0 1.49463 0 3.33835C0 5.18207 1.50791 6.6767 3.368 6.6767Z" transform="translate(80.842 120.1955)" id="Ellipse_14-2" fill="#CCCCCC" stroke="none" />
    <path d="M3.368 6.6767C5.2281 6.6767 6.736 5.18207 6.736 3.33835C6.736 1.49463 5.2281 0 3.368 0C1.50791 0 0 1.49463 0 3.33835C0 5.18207 1.50791 6.6767 3.368 6.6767Z" transform="translate(40.421 0)" id="Ellipse_2-2" fill="#CCCCCC" stroke="none" />
    <path d="M3.368 6.6767C5.2281 6.6767 6.736 5.18207 6.736 3.33835C6.736 1.49463 5.2281 0 3.368 0C1.50791 0 0 1.49463 0 3.33835C0 5.18207 1.50791 6.6767 3.368 6.6767Z" transform="translate(40.421 80.13036)" id="Ellipse_11-2" fill="#CCCCCC" stroke="none" />
    <path d="M3.368 6.6767C5.2281 6.6767 6.736 5.18207 6.736 3.33835C6.736 1.49463 5.2281 0 3.368 0C1.50791 0 0 1.49463 0 3.33835C0 5.18207 1.50791 6.6767 3.368 6.6767Z" transform="translate(40.421 40.06518)" id="Ellipse_7-2" fill="#CCCCCC" stroke="none" />
    <path d="M3.368 6.6767C5.2281 6.6767 6.736 5.18207 6.736 3.33835C6.736 1.49463 5.2281 0 3.368 0C1.50791 0 0 1.49463 0 3.33835C0 5.18207 1.50791 6.6767 3.368 6.6767Z" transform="translate(40.421 120.1955)" id="Ellipse_12-2" fill="#CCCCCC" stroke="none" />
    <path d="M3.368 6.6767C5.2281 6.6767 6.736 5.18207 6.736 3.33835C6.736 1.49463 5.2281 0 3.368 0C1.50791 0 0 1.49463 0 3.33835C0 5.18207 1.50791 6.6767 3.368 6.6767Z" transform="translate(121.263 0)" id="Ellipse_4-2" fill="#CCCCCC" stroke="none" />
    <path d="M3.368 6.6767C5.2281 6.6767 6.736 5.18207 6.736 3.33835C6.736 1.49463 5.2281 0 3.368 0C1.50791 0 0 1.49463 0 3.33835C0 5.18207 1.50791 6.6767 3.368 6.6767Z" transform="translate(121.263 80.13036)" id="Ellipse_15-2" fill="#CCCCCC" stroke="none" />
    <path d="M3.368 6.6767C5.2281 6.6767 6.736 5.18207 6.736 3.33835C6.736 1.49463 5.2281 0 3.368 0C1.50791 0 0 1.49463 0 3.33835C0 5.18207 1.50791 6.6767 3.368 6.6767Z" transform="translate(121.263 40.06518)" id="Ellipse_6-2" fill="#CCCCCC" stroke="none" />
    <path d="M3.368 6.6767C5.2281 6.6767 6.736 5.18207 6.736 3.33835C6.736 1.49463 5.2281 0 3.368 0C1.50791 0 0 1.49463 0 3.33835C0 5.18207 1.50791 6.6767 3.368 6.6767Z" transform="translate(121.263 120.1955)" id="Ellipse_16-2" fill="#CCCCCC" stroke="none" />
  </g>
</svg>