<?xml version="1.0" encoding="utf-8"?>
<svg width="27px" height="27px" viewBox="0 0 27 27" version="1.1" xmlns:xlink="http://www.w3.org/1999/xlink" xmlns="http://www.w3.org/2000/svg">
  <desc>Created with Lunacy</desc>
  <path d="M26.752 4.89169L26.752 21.3684C26.7528 22.6659 26.2331 23.9106 25.3075 24.8281C24.3818 25.7456 23.1261 26.2607 21.817 26.2599L18.441 26.2599L18.441 15.9584L21.818 15.9584L22.337 11.839L18.437 11.839L18.437 9.26782C18.437 8.49568 18.697 7.72354 20.515 7.72354L22.6 7.72354L22.6 4.11954C21.5657 3.97598 20.524 3.89126 19.48 3.8658C16.363 3.8658 14.285 5.66779 14.285 9.01507L14.285 11.8469L10.909 11.8469L10.909 15.9584L14.286 15.9584L14.286 26.2599L4.935 26.2599C3.65351 26.3196 2.40285 25.8589 1.47159 24.9843C0.540331 24.1097 0.00892953 22.8967 0 21.6251L0 4.89169C0.0900665 2.22801 2.24767 0.0894007 4.935 0.000127047L21.558 0.000127047C24.3347 -0.0190808 26.6294 2.14203 26.752 4.89169Z" id="Path_98" fill="#D5D5D5" stroke="none" />
</svg>