<?xml version="1.0" encoding="utf-8"?>
<svg width="27px" height="27px" viewBox="0 0 27 27" version="1.1" xmlns:xlink="http://www.w3.org/1999/xlink" xmlns="http://www.w3.org/2000/svg">
  <desc>Created with Lunacy</desc>
  <path d="M26.5124 18.5546C26.6198 20.6432 25.8703 22.686 24.4344 24.2183C22.9126 25.6808 20.8336 26.4304 18.7194 26.279L7.81144 26.279C5.70431 26.3854 3.64334 25.6425 2.09744 24.2193C0.622326 22.7106 -0.133585 20.65 0.0194356 18.5546L0.0194356 7.74261C-0.0879364 5.65402 0.661571 3.6112 2.09744 2.07891C3.61923 0.617049 5.69775 -0.132187 7.81144 0.0191978L18.7194 0.0191978C20.8266 -0.0872291 22.8875 0.655681 24.4334 2.07891C25.9083 3.5873 26.6642 5.64752 26.5114 7.74261L26.5114 13.1486C26.6416 14.9483 26.6419 16.7549 26.5124 18.5546ZM5.47344 2.59631C4.89952 2.84712 4.37375 3.19455 3.91944 3.62319C3.48557 4.07449 3.13402 4.59701 2.88044 5.16748C2.10144 6.96947 2.36144 11.0889 2.36144 12.8909C2.36144 14.6929 2.10144 19.07 2.88044 20.6143C3.36529 21.7829 4.30145 22.7108 5.48044 23.1914C7.29844 23.9636 11.4544 23.7058 13.2724 23.7058C15.0904 23.7058 19.5064 23.9636 21.0644 23.1914C22.2434 22.7108 23.1796 21.7829 23.6644 20.6143C24.4434 18.8123 24.1834 14.6929 24.1834 12.8909C24.1834 11.0889 24.4434 6.71176 23.6644 5.16748C23.4091 4.59656 23.0555 4.07401 22.6194 3.62319C22.2094 3.13892 21.667 2.78233 21.0574 2.59631C19.2394 1.82417 15.0834 2.08188 13.2654 2.08188C11.4474 2.08188 7.29244 2.07891 5.47344 2.59631ZM13.2654 19.8431C11.4706 19.8557 9.74559 19.1545 8.47641 17.8965C7.20723 16.6384 6.49981 14.9286 6.51244 13.1496C6.51244 9.45284 9.53586 6.45603 13.2654 6.45603C16.995 6.45603 20.0184 9.45284 20.0184 13.1496C20.0311 14.9286 19.3236 16.6384 18.0545 17.8965C16.7853 19.1545 15.0603 19.8557 13.2654 19.8431L13.2654 19.8431ZM13.2654 8.51574C10.8573 8.58656 8.92188 10.505 8.85044 12.8919C8.85044 15.309 10.8273 17.2685 13.2659 17.2685C15.7045 17.2685 17.6814 15.309 17.6814 12.8919C17.6917 11.7279 17.2297 10.6087 16.3993 9.78558C15.5689 8.9625 14.4397 8.5046 13.2654 8.51475L13.2654 8.51574ZM20.5374 7.48589C19.7014 7.4293 19.036 6.76934 18.9794 5.94061C18.9794 5.08745 19.6772 4.39583 20.5379 4.39583C21.3987 4.39583 22.0964 5.08745 22.0964 5.94061C22.0394 6.76895 21.3741 7.42837 20.5384 7.48489L20.5374 7.48589Z" id="Path_100" fill="#D5D5D5" stroke="none" />
</svg>